<svg xmlns="http://www.w3.org/2000/svg" width="357.86" height="157.94" viewBox="0 0 357.86 157.94">
  <defs>
    <style>
      .cls-1 {
        fill: #0075c9;
      }
    </style>
  </defs>
  <title>WFP-it</title>
  <g id="Layer_2" data-name="Layer 2">
    <g id="Layer_1-2" data-name="Layer 1">
      <g>
        <g>
          <g>
            <g>
              <path class="cls-1" d="M74.67,39.19a31,31,0,0,1,2.27-4.14c.41-.63.88-1.07,1.29-1.71a.89.89,0,0,0-.61.19c-.42.3-.6.79-.93,1-.78.62-.76,1.18-1.17,1.46a2.36,2.36,0,0,0-.73.83,4.08,4.08,0,0,0-.48,1c-.06.19-.19,0-.5.44a4.84,4.84,0,0,0-.74,1.8c0,.22-.42.33-.66.78A5.88,5.88,0,0,0,71.75,43c0,.21-.39.35-.63.92a4.11,4.11,0,0,0-.44,1.25c-.09.47-.3.53-.54,1.2A6.83,6.83,0,0,0,69.89,48a6.77,6.77,0,0,1-.44.76,5,5,0,0,0-.46,1.7A9.82,9.82,0,0,0,68.42,52a9.29,9.29,0,0,0-.09,1.92A12,12,0,0,0,68,57.19a10.29,10.29,0,0,1,.1,1.65c-.1,1.65-.19,3-.18,4.89a28.56,28.56,0,0,0,.24,3.58c.17,1.28.41,2.29.41,2.29H72.8a36.14,36.14,0,0,1,0-5,23.26,23.26,0,0,1,.82-4.28,32.63,32.63,0,0,1,1.47-4.12s0-.22-.21,0a5.07,5.07,0,0,0-1.15,1.2,21.34,21.34,0,0,0-1.27,2.27c-.5,1-.78,1.77-1.29,2.92a9.42,9.42,0,0,1,.27-2.39,14.47,14.47,0,0,1,.56-2.07,15.93,15.93,0,0,1,1.56-3.29,8.19,8.19,0,0,1,1.45-1.69c.62-.57,1.21-1.08,1.87-1.64-.7-.36-1.62.39-1.8.42-1,.19-1.37,1.1-1.67,1.22a2.42,2.42,0,0,0-1,.8c-.23.27-.29.69-.53.83a2.72,2.72,0,0,0-1,1.15c-.12.21-.42,1.23-.76,1.1A24,24,0,0,1,74,47.45a17.74,17.74,0,0,1,4.58-4.79c.26-.19.31-.28-.06-.26a3.22,3.22,0,0,0-2.27,1.15,2.68,2.68,0,0,0-.88.64c-.41.41-.41.76-.57.86A2.65,2.65,0,0,0,74,46a2.83,2.83,0,0,1-.51.79,3.06,3.06,0,0,0-1.17,1.11,7.2,7.2,0,0,1-.46,1,5.12,5.12,0,0,1-.85.83,32,32,0,0,1,1.39-4.73A48.38,48.38,0,0,1,74.67,39.19Z"/>
              <path class="cls-1" d="M78.94,51.13a54.87,54.87,0,0,1,5.42-9.36q.42-.62.78-1.2l.76-1.1c.73-1.09,1-1.43,1.77-2.48a2.22,2.22,0,0,0,.45-.84c.16-.61-.36-1-.49-1.61a2.64,2.64,0,0,1,.23-1.76,6.07,6.07,0,0,0,.51-.87c.34-.82.23-2.6.61-2.64a9.76,9.76,0,0,0,0,2.59c.16,1,.73,1.52,1,2.52a7,7,0,0,1,1.87,0,4.94,4.94,0,0,0,1.75-.29c.73-.25,1.35-.71,2.1-.89a12.93,12.93,0,0,1-2.3,1.31,2.43,2.43,0,0,0-.73.7,2.56,2.56,0,0,1-1,1.13,10.73,10.73,0,0,1-2.54.37,30.65,30.65,0,0,0-4,5.61,67.81,67.81,0,0,0-7.33,16.56c.53-1,1-2,1.61-2.89s1.35-2.06,2.13-3.09c1.82-2.39,3.62-4.49,5.63-6.69a26,26,0,0,1,5.4-4.52c2.63-1.65,5.88-2.8,8.72-2.21a2.14,2.14,0,0,1,1,.38,11.88,11.88,0,0,0-9.15,2.66,31.33,31.33,0,0,0-5.09,5c-.84,1-1.59,2-2.33,3s-1.48,2.2-2.16,3.33a53.39,53.39,0,0,0-5.36,12.06c0,.13,0,.27-.08.4.06-.1.15-.2.21-.29a24.33,24.33,0,0,1,6.46-7.37,1.52,1.52,0,0,0,.54-.7c.28-1.12-.57-1.65.61-3.2.27-.36.64-.49.89-.82A23.53,23.53,0,0,1,88,51.51a23.1,23.1,0,0,0-.81,2.69A17.22,17.22,0,0,0,87.4,57a10.1,10.1,0,0,1,1.78.56,4.88,4.88,0,0,0,2.21.13,5.89,5.89,0,0,1,1.4-.16c-.82.44-1.92.36-2.75.78-.58.3-.75.74-1.55.9a2.73,2.73,0,0,1-1.79-.18,1,1,0,0,0-1-.1,7.66,7.66,0,0,0-2.16,1.71A23.1,23.1,0,0,0,79.4,66.5c-.32.64-.62,1.26-.89,1.91-.14.32-.48,1.19-.48,1.19H73.8s0-1.22,0-1.67a23.69,23.69,0,0,1,.38-2.44c.24-1.3.48-2.47.82-3.73s.68-2.37,1.1-3.55C77,55.76,77.92,53.42,78.94,51.13Z"/>
              <path class="cls-1" d="M38,84.1a32,32,0,0,1,4.23-2.91,24.61,24.61,0,0,1,2.3-1.13,25.42,25.42,0,0,1,9.54-2.16h25a3,3,0,0,1,2.06.73A3.29,3.29,0,0,1,82,80.5a4.31,4.31,0,0,1-.08,1.78,3,3,0,0,1-.48,1.24,2.77,2.77,0,0,1-.65.7,2.05,2.05,0,0,1-1.31.35h-.17s-29.06,0-29.06,0H50a44.61,44.61,0,0,0-5.78.34,38.36,38.36,0,0,0-4.28.78c-1.75.46-3.44,1.09-5.13,1.72A19.61,19.61,0,0,1,38,84.1Z"/>
              <path class="cls-1" d="M46.64,74.22a23,23,0,0,1,5-2.64c.84-.31,1.94-.66,2.82-.88a16.11,16.11,0,0,1,3.28-.5c.3,0,0,0,0,0H79.11s.45,0,.61,0a2.77,2.77,0,0,1,.86.34,3.56,3.56,0,0,1,1,1A4,4,0,0,1,82,74.52c-.2,1.16-1.09,2.5-2.29,2.53H56s-1.35,0-2,0a31.31,31.31,0,0,0-3.38.32,20.61,20.61,0,0,0-2.53.51c-2.84.76-5.31,2.21-7.9,3.33A22.77,22.77,0,0,1,46.64,74.22Z"/>
              <path class="cls-1" d="M34.73,88.7A26,26,0,0,1,47,85.51H79.46c1.93,0,2.63,1.91,2.63,3.46a4.21,4.21,0,0,1-.24,1.38,3.59,3.59,0,0,1-.71,1.19,2.48,2.48,0,0,1-.74.48,4.82,4.82,0,0,1-1,.09s-23.69,0-23.69,0-1.28,0-2.16-.13c-.64-.07-1.13-.13-1.79-.26a42.56,42.56,0,0,1-4.4-1.29,21,21,0,0,0-3-.67,26.51,26.51,0,0,0-5.9-.27,29.67,29.67,0,0,0-6.94,1.39A13,13,0,0,1,34.73,88.7Z"/>
              <path class="cls-1" d="M51.88,98.68a13.88,13.88,0,0,1-3.1-1.5A21.09,21.09,0,0,0,45.32,95,46.22,46.22,0,0,0,40.94,93a23.18,23.18,0,0,0-3.7-1c-1.84-.31-3.6-.45-3.6-.45a3.47,3.47,0,0,1,.6-.3,23.67,23.67,0,0,1,5.44-1,21.42,21.42,0,0,1,4.92.3A22.3,22.3,0,0,1,47,91.1c2.54.72,5.43,1.87,8,1.88.14,0,.12,0,.12,0H78.85a3,3,0,0,1,2.59,1.18,4.19,4.19,0,0,1,.3,3.71,3.59,3.59,0,0,1-.8,1.3,2.1,2.1,0,0,1-1.19.5H58.69A21.89,21.89,0,0,1,51.88,98.68Z"/>
              <path class="cls-1" d="M61.31,106c-.58-.6-1.39-1.52-2.12-2.4a13.68,13.68,0,0,1-2-3.18H71a19.68,19.68,0,0,1-.28,3.44,18.08,18.08,0,0,1-1.6,4.82c0,1.34.54,2.59.63,3.92A18.82,18.82,0,0,0,66.34,115c-.06.06-.17.06-.21-.1-.55-2-.83-3.87-1.28-5.88A31.7,31.7,0,0,1,61.31,106Z"/>
              <path class="cls-1" d="M75.54,104.9a16.7,16.7,0,0,0-1.13-2.24c-.09.5,0,.81,0,1.3s-.4.23-.47,0c-.19-.55-.39-1.22-.57-1.78a10.1,10.1,0,0,1-.39-1.77h2.3s.09,0,.13.24c.11.58.08,1.15.24,1.82a17.17,17.17,0,0,0,.78,2.46c.28.7.63,1.42.92,2.12a.44.44,0,0,1,0,.37.2.2,0,0,1-.31,0A12.84,12.84,0,0,1,75.54,104.9Z"/>
              <path class="cls-1" d="M79.1,106.54a6.08,6.08,0,0,1-.89-2.72c.25.34.36.58.71.76.16,0,.49,0,.41-.27-.16-.52-.4-1-.62-1.68-.33-1-.65-2.18-.65-2.18H75.72a13,13,0,0,0,.66,2.41,28.77,28.77,0,0,0,2,4.16,17.59,17.59,0,0,0,2,3c.25.28.86,0,.6-.34A19.76,19.76,0,0,1,79.1,106.54Z"/>
              <path class="cls-1" d="M94.33,27.28a2.33,2.33,0,0,0-1.22,1c-.18.35-.31.88,0,1.19.62.52,1.36,0,1.66-.56a4.63,4.63,0,0,0,.27-2S94.66,27.14,94.33,27.28Z"/>
              <path class="cls-1" d="M94.87,30.56a3.39,3.39,0,0,1,1.24-1.19c.6-.37,1.23-.73,1.66-1s.52-.45.52-.45a4.48,4.48,0,0,0-.55.24c-1.08.64-2.25,1.37-2.73,1.58a8.73,8.73,0,0,1-2.15.41A15.67,15.67,0,0,1,92.5,28a8.46,8.46,0,0,1,.17-1.27c.23-1.2.28-1.8.28-1.8a1.22,1.22,0,0,0-.25.7c-.08.47-.13.65-.24,1.21a3,3,0,0,1-.64,1.6,2.21,2.21,0,0,0-.64,2.39c.25.46.67.39.8.51s.21.4.61.54C93.45,32.18,94.42,31.41,94.87,30.56Z"/>
              <path class="cls-1" d="M93.75,33a3.05,3.05,0,0,1,1-1.09c.76-.46,1.33-.78,1.79-1a.68.68,0,0,0,.42-.44,16,16,0,0,0-1.77.91,5.56,5.56,0,0,1-2.17.78,6,6,0,0,1-.65-.06,5.87,5.87,0,0,0-1,.09,7.33,7.33,0,0,0-.33-1.05,3.87,3.87,0,0,1-.32-.88,4,4,0,0,1-.05-1A17.59,17.59,0,0,0,91,27c-.48,1-.28,2.23-.84,3a5.73,5.73,0,0,0-.62,1,2,2,0,0,0,.15,2c.24.37.77.36.87.43s.25.49.78.6A2.34,2.34,0,0,0,93.75,33Z"/>
              <path class="cls-1" d="M94,52.55a11.06,11.06,0,0,1,.61-1.36c-.6.09-.7.16-1.56.25a1.67,1.67,0,0,0-.71.34A1.26,1.26,0,0,0,91.83,53a.64.64,0,0,0,.36.43A1.55,1.55,0,0,0,94,52.55Z"/>
              <path class="cls-1" d="M94.73,53.69a7.55,7.55,0,0,1,2.15-.47,13.2,13.2,0,0,1-2.59.8,5.44,5.44,0,0,0-1.69,1.13,1.84,1.84,0,0,1-1.87.27,1.09,1.09,0,0,1-.46-.63c0-.15-.34-.29-.5-.42a1,1,0,0,1-.23-.59c0-1.13.83-1.59,1.66-2.25.63-.51,1.44-2.63,1.94-3.07a25.61,25.61,0,0,1-1.37,3,15.43,15.43,0,0,0-.41,2.29c.6,0,1.26.16,1.86.17A6.69,6.69,0,0,0,94.73,53.69Z"/>
              <path class="cls-1" d="M93.87,55.44c-.46.08-1,.23-1.4.31-1.34.28-2-.37-3-.36.09-1.22-.33-1.77,0-2.56s.6-1.44.86-2a3.84,3.84,0,0,0,.29-.88s-.33.49-1.25,2.28c-.32.63-.89.76-1.4,1.35s-.92,2.1.16,2.7c.22.12.19.49.34.64a2.43,2.43,0,0,0,3.1-.22,5,5,0,0,1,2.36-1,4.81,4.81,0,0,0,.83-.3A1.74,1.74,0,0,0,93.87,55.44Z"/>
              <path class="cls-1" d="M68.47,46.22a26.19,26.19,0,0,0,.88-4.35,8.66,8.66,0,0,0-1.75-6.24c.14.73.33,1.35.42,2.11a7.85,7.85,0,0,1-.25,2.88A11.65,11.65,0,0,1,67,42.67,13.29,13.29,0,0,1,65.48,45c-1.55,1.92-4,5.68-4,5.68H61.2c0-.47,1.08-2.08,1.64-3,1.23-2,2.16-3,3.23-4.74a9.72,9.72,0,0,0,1.35-3.58c.33-2.41-1-5.31-2.85-6.28.43,1.81.39,4.36-.58,5.43a24.75,24.75,0,0,0-4.2,6.15c0,.07-.34-.35-.59-.52S59.07,43.4,59,43a2.32,2.32,0,0,0-.28-.62c-.39-.47-.76-.5-.84-.64a3,3,0,0,0-.38-1c-.17-.23-.6-.4-.77-.61s-.28-1-.79-1.25c-.25-.13-.37-.56-.6-.77a2.41,2.41,0,0,0-1.6-.57,3.55,3.55,0,0,0-1.2-.62c-.64-.11-1,.31-1.32.16a1.9,1.9,0,0,0-2.51.57c-.26.29-.72,0-1.29.45s-.51.74-.77.79a1.47,1.47,0,0,0-1,.89,5.43,5.43,0,0,0-.22.94,7.6,7.6,0,0,0-.28,1.05c0,.41.12.63.08.81s-.27.5-.29.75a1.44,1.44,0,0,0,.07.72c.12.25-.09.48-.21.75a2.37,2.37,0,0,0-.18,1c0,.42.28.58.1.91a2.19,2.19,0,0,0,0,2.47c.13.19-.28.58-.31,1.14a3,3,0,0,0,.45,1.34c0,.09-.17.09-.17.19a46.92,46.92,0,0,0-5-4.8,23.21,23.21,0,0,0-3.57-2.36c-3.41-1.83-7.38-3.06-11-2.61,1.35,1.09,3.06,1.87,4.45,3.1s2.51,2.18,3.71,3.43a48.77,48.77,0,0,1,5,6.23c.47.69.78,1.14,1.22,1.85s.94,1.47,1.34,2.17c2,3.54,3.71,6.82,5.41,10.45.47,1,.86,2.06,1.32,3.05.12.27.3.07.42,0,.62-.35,1.27-.65,1.9-1s1-.39,1.42-.56a21.47,21.47,0,0,1,3.43-.93,33.3,33.3,0,0,1,5.59-.33h7c-.07-1.95-.53-3.85-.64-5.81-.09-1.59,0-3.12,0-4.71A65,65,0,0,1,68.47,46.22Zm-8,3.4c.13.38.3.66.15,1s-.62.53-1,.68-1.06.32-1.39,0-.53-1.19-.07-1.54S60.18,48.74,60.49,49.62Zm-4.87,7.81c-.46.52-1.2.5-1.94.72a.79.79,0,0,1-.77-.43c-.27-.48-.54-1.13,0-1.6s1-.36,1.55-.52a.9.9,0,0,1,.81,0A1.25,1.25,0,0,1,55.62,57.43Zm.92,1.86A1,1,0,0,1,56,60.64c-.68.24-1.6.59-2.15.23s-.92-1.61-.21-2.07S56.19,57.88,56.54,59.29ZM47.88,43.4c.19-.53.84-.5,1.34-.43a.81.81,0,0,1,.52,1.19c-.3.46-1,.37-1.53.3S47.73,43.82,47.88,43.4Zm-.13-1.75A.35.35,0,0,1,48,41.4a1.28,1.28,0,0,1,1.27,0,.57.57,0,0,1,0,.85,1.21,1.21,0,0,1-1.35.12A.56.56,0,0,1,47.75,41.65Zm4,.88a1.76,1.76,0,0,1-1.67.16.83.83,0,0,1-.19-1.14,1.57,1.57,0,0,1,1.73-.42A.82.82,0,0,1,51.77,42.53Zm.62.8a1,1,0,0,1,.27,1.36,1.83,1.83,0,0,1-2.22.38c-.37-.27-.57-1.38.19-1.65A2,2,0,0,1,52.39,43.33Zm-4.21,1.84c.58-.24,1.68-.45,1.86.39.25,1.11-1.07,1.29-1.77,1.1C47.73,46.51,47.63,45.39,48.18,45.17Zm-.08,2.51A1.9,1.9,0,0,1,50,47.17c.4.11.59.58.58,1.11a.67.67,0,0,1-.4.59,3.09,3.09,0,0,1-1.53.27A.94.94,0,0,1,48.1,47.68ZM48.42,50a2.3,2.3,0,0,1,1.92-.41c.4.05.57.45.62.88.16,1.19-1.44,1.39-2.2,1.12A1.1,1.1,0,0,1,48.42,50Zm2.3-3c-.4-1.22,1.12-1.61,2-1.42a1,1,0,0,1,.25,1.7C52.27,47.74,51,47.89,50.72,47Zm6.13,1.36c-.34.63-1.51.71-2,.64-.37,0-.63-.64-.62-1.14a.52.52,0,0,1,.26-.52,2.85,2.85,0,0,1,1.8-.42A1,1,0,0,1,56.85,48.36Zm.32,1.24a1.1,1.1,0,0,1,0,1.31,2.43,2.43,0,0,1-2,.47c-.31-.08-.46-.45-.5-.71a.94.94,0,0,1,.2-1,2.22,2.22,0,0,1,1.59-.39A.92.92,0,0,1,57.17,49.6Zm-.86-3.7c-.4.6-2,1-2.37.36-.26-.45-.42-1.08.07-1.38a2.5,2.5,0,0,1,1.72-.4A1.07,1.07,0,0,1,56.31,45.9Zm-1.13-2a2.43,2.43,0,0,1-1,.43.89.89,0,0,1-1.13-.73c-.1-.86.82-1,1.43-1.1a.86.86,0,0,1,.65,1.4Zm-3.77,4.51c.67-.38,2.11-.89,2.45.21.13.44.12,1-.27,1.19a2.19,2.19,0,0,1-2.05.2C51,49.65,50.94,48.66,51.41,48.39ZM52,50.9c.7-.49,2.08-.81,2.42.27a1,1,0,0,1,0,.81,2.14,2.14,0,0,1-2,.7A1,1,0,0,1,52,50.9Zm.52,2.48c.58-.3,1.42-.65,2-.25a1.24,1.24,0,0,1,.38,1.28,2.17,2.17,0,0,1-2.27.72A1,1,0,0,1,52.52,53.38Zm2.81,0c-.14-.37-.28-.9,0-1.13.58-.45,1.89-.85,2.39-.16a1,1,0,0,1-.34,1.5C56.8,53.85,55.66,54.19,55.33,53.34Zm3.92-6.58c.28,0,.53.34.67.68a1,1,0,0,1-.15,1c-.33.23-1.39.87-2.06.49a1.22,1.22,0,0,1-.49-1C57.14,47.06,58.54,46.68,59.25,46.76ZM59,45.18a1,1,0,0,1,0,.93,1.86,1.86,0,0,1-1.81.58A.9.9,0,0,1,57,45.41a1.84,1.84,0,0,1,1.68-.58C58.78,44.86,58.87,45,59,45.18Zm-1.2-2.56c.59.07.7.9.58,1.2a1.39,1.39,0,0,1-.58.54,1.48,1.48,0,0,1-1.32.1.93.93,0,0,1-.32-1.16A1.64,1.64,0,0,1,57.79,42.62Zm-.65-1.16c.15.46-.18.68-.54.87s-.85.37-1.1.13a.79.79,0,0,1-.11-1.15C55.89,40.85,56.81,40.5,57.14,41.46Zm-1.52-1.94a.49.49,0,0,1,.44.41.62.62,0,0,1-.25.67,1.76,1.76,0,0,1-.89.29.64.64,0,0,1-.51-.88A1.29,1.29,0,0,1,55.62,39.52Zm-.92-1.27a.4.4,0,0,1,.27.57,1.21,1.21,0,0,1-.42.39c-.38.24-.7.14-.82-.14C53.51,38.57,54.24,38.11,54.7,38.25Zm-.54,2.5a.7.7,0,0,1,.17,1,1.62,1.62,0,0,1-1.09.5.69.69,0,0,1-.74-.44c0-.23-.09-.65.14-.85A1.17,1.17,0,0,1,54.16,40.75Zm-.65-1.47a.68.68,0,0,1-.29.88c-.39.23-.94.37-1.17,0a.68.68,0,0,1,.36-1C52.79,39,53.19,38.75,53.51,39.28ZM51.37,38a1,1,0,0,1,1.22-.52.59.59,0,0,1,.34.35.72.72,0,0,1-.32.76,1,1,0,0,1-1,.18A.58.58,0,0,1,51.37,38Zm.21,1.92a.88.88,0,0,1-.71.63c-.37.08-.9.11-1.11-.13a.62.62,0,0,1-.12-.77,1.4,1.4,0,0,1,1.49-.52A.63.63,0,0,1,51.58,39.93Zm-2.3-1.83a1,1,0,0,1,1.22-.62.63.63,0,0,1,.24,1,1.24,1.24,0,0,1-.59.32C49.63,38.94,49.11,38.65,49.28,38.1ZM49,40.75c-.46.14-1.1.16-1.24-.31-.23-.8.78-.92,1.31-.75A.58.58,0,0,1,49,40.75Zm-1.32-2a.66.66,0,0,1,.34-.3,1,1,0,0,1,.69,0c.42.17.36.7-.09.88a1.13,1.13,0,0,1-.66.08C47.64,39.26,47.56,39,47.65,38.7Zm-1.32.93a.93.93,0,0,1,.94.13c.3.32.07.84-.49.81a1.38,1.38,0,0,1-.55-.14A.48.48,0,0,1,46.33,39.63ZM46,41.06a1.65,1.65,0,0,1,1.14.06.49.49,0,0,1,.26.57.7.7,0,0,1-.75.45c-.34,0-.72,0-.86-.3A.58.58,0,0,1,46,41.06Zm1.22,1.78a.51.51,0,0,1,.3.39c.07.42,0,.88-.44,1-.61.11-1.51.15-1.51-.71S46.47,42.52,47.17,42.84Zm-1.68,2c.55-.22,1.49-.33,1.87.28.24.38.17,1.08-.21,1.18s-1.64.3-1.95-.4A.84.84,0,0,1,45.49,44.8Zm-.33,2.32c.51-.49,1.18-.27,1.8-.18a.63.63,0,0,1,.34.18,1,1,0,0,1,0,1.48c-.54.4-1.22.14-1.88.11a.6.6,0,0,1-.41-.35A1.22,1.22,0,0,1,45.16,47.12Zm0,2.76c.34-.74,1.58-.75,2.25-.42a1.05,1.05,0,0,1,0,1.7,2.54,2.54,0,0,1-1.74.11C44.94,51.13,44.89,50.43,45.13,49.88Zm.41,3.19a.63.63,0,0,1,.2-1A2.91,2.91,0,0,1,47.67,52c.36.13.54.64.47,1.2a.83.83,0,0,1-.21.56,2.17,2.17,0,0,1-1.59.19C46,53.83,45.84,53.34,45.54,53.07Zm2.58,3.15A5.7,5.7,0,0,1,47,54.73c-.09-.13,0-.19.07-.21.94-.26,1.63.21,1.49,1.23C48.5,55.94,48.37,56.41,48.12,56.22Zm.63-3.46c.06-.26.34-.38.58-.44a2.34,2.34,0,0,1,1.87,0c.22.14.24.33.27.61.05.45,0,.82-.31,1a2.57,2.57,0,0,1-1.91.24C48.69,54,48.64,53.28,48.75,52.76ZM49.54,55c.76-.49,2.22-.86,2.46.48a.92.92,0,0,1-.57,1.11,2.7,2.7,0,0,1-1.73.17A1.08,1.08,0,0,1,49.54,55Zm-.19,3.18c-.08-.1-.14-.4-.05-.48a3,3,0,0,1,2.12-.44c.88.08,1.06.9.92,1.58-.2.89-1.55,1-1.94.85S49.76,58.69,49.35,58.18ZM51,60.91c-.09-.14-.28-.53-.14-.58,1.13-.38,2-.4,2.22.81.17.86-.42,1.6-1.24,1.3C51.59,62.36,51.36,61.44,51,60.91Zm2.36,4.28c-.63-.52-.69-1.35-1.11-2a1,1,0,0,1,1.49.35c.19.47.33,1.16-.15,1.52C53.53,65.12,53.41,65.24,53.35,65.19Zm.91,2.19c-.28-.12-.27-.48-.39-.7s-.34-.5-.24-.78A1.27,1.27,0,0,1,54.26,67.38Zm1.2-1.75a10.94,10.94,0,0,1-.33,1.07c-.08.17-.18-.06-.19-.07A2.09,2.09,0,0,1,54.76,65a1.09,1.09,0,0,1,.88-.58A4.47,4.47,0,0,1,55.46,65.63Zm1-3.6c-.17.46-.25.89-.43,1.32s-1,.56-1.37.42c-.61-.18-1.13-1.54-.44-2.07A3.34,3.34,0,0,1,56,61.16a1.87,1.87,0,0,1,.59.06C56.7,61.5,56.63,61.64,56.49,62Zm.91-3.12c-.18.26-.65-.61-.71-1-.17-1.16.84-1.45,1.68-1.42A4.91,4.91,0,0,1,57.4,58.91Zm1.37-3.52c-.25.66-1,.73-1.63.87a.9.9,0,0,1-.64-.16A1.35,1.35,0,0,1,56,55a.85.85,0,0,1,.55-.67c.53-.21,1.15-.54,1.67-.24A1.1,1.1,0,0,1,58.77,55.39ZM60.9,52a17.48,17.48,0,0,1-1.14,1.78.54.54,0,0,1-.85-.17c-.23-.35-.59-.84-.32-1.19a2.55,2.55,0,0,1,2.17-.83C60.81,51.61,61.07,51.8,60.9,52ZM67.13,69.6Z"/>
              <g>
                <path class="cls-1" d="M22,30.05a10.77,10.77,0,0,0-2.5,3.28,9.19,9.19,0,0,0-1.2,3.39,18.19,18.19,0,0,0,7-5.5c1.49-1.74,2.65-4,4.12-5.76A19.74,19.74,0,0,0,22,30.05Z"/>
                <path class="cls-1" d="M14.19,33.78a20.14,20.14,0,0,1,4-4.91,20,20,0,0,0-1.88,5.05c-.59,3.75-1.15,6.37-1.78,9.79,1.7-1.21,3.5-3.11,5.3-4.44,1.39-1,2.79-1.71,4.22-2.69a15.74,15.74,0,0,0,2.11-2c-.84,3.56-4,7.15-6.2,8.82a47.71,47.71,0,0,0-8.32,7C11.1,44.71,11.2,38.83,14.19,33.78Z"/>
                <path class="cls-1" d="M5,52.59a45.23,45.23,0,0,1,1.27-8.17c.5-2,1.58-5,3.14-6.2A19.83,19.83,0,0,0,9,40.77c-.3,3,.28,6.55.35,9.57a21.5,21.5,0,0,1-.2,4,14.87,14.87,0,0,0,0,3.26,19,19,0,0,0,1.52-2.06A25,25,0,0,1,14,51a33.18,33.18,0,0,1,5.3-4.59,19.8,19.8,0,0,1-1.67,3.46c-.55,1-.81,1.86-2.12,4.06-1.86,3.09-2.69,3.51-4.75,6.82C10.31,61.47,8.48,64.21,8,65c-1-2-1.33-3.74-2.51-7A13,13,0,0,1,5,52.59Z"/>
                <path class="cls-1" d="M2.12,67.89a35.08,35.08,0,0,1-2-8.65,14.44,14.44,0,0,1,.54-6.16c.18.44.54,1.56.58,1.72a31.17,31.17,0,0,0,1.4,4.08A34.06,34.06,0,0,0,4.5,62.32,30.57,30.57,0,0,1,6.12,66c1.47,3.6,1.58,7,2.14,7.33a6.5,6.5,0,0,0,.58-2.1c.44-4,1-7.6,6-12.29a13,13,0,0,1-.05,5.35,28,28,0,0,1-2.41,7.39c-.7,1.53-1.64,3.8-1.89,4.55-.68,2-.91,3-1.33,4.13C6.76,76.44,3.85,72.37,2.12,67.89Z"/>
                <path class="cls-1" d="M6,86a27,27,0,0,1-3.39-6A22.94,22.94,0,0,1,.9,74.79a7.1,7.1,0,0,1-.23-3.2c1.32,2.39,2.22,5.06,4,7C6,80.21,7.3,81.54,8.39,82.87c1.67,2,3,4,4.59,6.09a13.36,13.36,0,0,0-.05-3.88,20.08,20.08,0,0,1,.29-6.66,41.63,41.63,0,0,1,1.94-7.35c1.24,2.44,1.24,5.26,1.55,7.85.6,5-1,11-1.28,13.52a23.42,23.42,0,0,0,.07,2.91A69.35,69.35,0,0,1,9,89.6,32.16,32.16,0,0,1,6,86Z"/>
                <path class="cls-1" d="M14.93,104.45a31.65,31.65,0,0,1-5.3-4.7A24.28,24.28,0,0,1,5.9,93.26a10.93,10.93,0,0,1-1-3.11c4.28,5.17,8.12,5.94,12.21,10.24,1.5,1.57,3,3,3.85,3.8a3.37,3.37,0,0,0,1.39.74,5.7,5.7,0,0,0-.48-1.87c-2.73-5.21-3.24-10.66-2.83-16.51a20.73,20.73,0,0,1,2.43,4.06,36.34,36.34,0,0,1,1.7,3.63c2.33,5.81,2.94,12.52,4.38,15.89C23.14,108.63,19.63,107.83,14.93,104.45Z"/>
                <path class="cls-1" d="M33.19,118.16a27.87,27.87,0,0,1-4.82-.13c-6.38-1-12.3-5.64-15.28-10.71a36.14,36.14,0,0,0,7,3.57c2.12.73,4.12.94,7.66,2,2.13.6,4.24,1.45,5,1.73a6.87,6.87,0,0,0,3.36.66s0-.36-.89-1.32c-1.75-1.92-2.4-2.38-3.85-3.85a18.71,18.71,0,0,1-2.11-3.25c-1.57-3.11-1.74-5.6-3.17-9,5.21,3.06,7.75,7.28,10.51,12.6a19.69,19.69,0,0,0,3,4.55c.7.7,1.69,1.75,1.69,1.75s-.72.17-3,.51A47.68,47.68,0,0,1,33.19,118.16Z"/>
                <path class="cls-1" d="M58.45,118.56a46,46,0,0,1,7.7,2,22.89,22.89,0,0,1,2.4,1.1,33.36,33.36,0,0,1,4.32,2.53,36.82,36.82,0,0,1,7.47,6.28c0,.05.44.46.18.67-.47.36-1.62.88-2,.54-2.17-1.93-2.06-2.55-4.7-4.94a28.22,28.22,0,0,0-2.92-2.3,33.3,33.3,0,0,0-4-2.37,10.84,10.84,0,0,0-4.14-.77h0c-.48,0-3.22,0-3.86,0-5.39.37-5.13.85-8.24,1.7a62.49,62.49,0,0,1-8,1.55,32.32,32.32,0,0,1-7.9.16,24.09,24.09,0,0,1-10.32-3.22c2.64,0,5.36.56,8,.35a21.55,21.55,0,0,0,4.12-.62c2.42-.75,3.8-1,6.37-1.75a41.7,41.7,0,0,1,6.71-1.07A33,33,0,0,1,58.45,118.56Z"/>
                <path class="cls-1" d="M107.76,30.05a10.77,10.77,0,0,1,2.5,3.28,9.19,9.19,0,0,1,1.2,3.39,18.19,18.19,0,0,1-7-5.5c-1.5-1.74-2.65-4-4.12-5.76A19.74,19.74,0,0,1,107.76,30.05Z"/>
                <path class="cls-1" d="M115.58,33.78a20.14,20.14,0,0,0-4-4.91,26.55,26.55,0,0,1,1.88,5.05c.38,3.78,1.15,6.37,1.77,9.79-1.69-1.21-3.49-3.11-5.29-4.44-1.39-1-2.79-1.71-4.22-2.69a15.74,15.74,0,0,1-2.11-2c.84,3.56,4,7.15,6.2,8.82a47.71,47.71,0,0,1,8.32,7C118.67,44.71,118.57,38.83,115.58,33.78Z"/>
                <path class="cls-1" d="M124.78,52.59a45.23,45.23,0,0,0-1.27-8.17c-.5-2-1.58-5-3.14-6.2a19.83,19.83,0,0,1,.37,2.55c.3,3-.28,6.55-.35,9.57a21.5,21.5,0,0,0,.2,4,14.87,14.87,0,0,1,0,3.26,19,19,0,0,1-1.52-2.06A25,25,0,0,0,115.78,51a33.18,33.18,0,0,0-5.3-4.59,19.8,19.8,0,0,0,1.67,3.46c.56,1,.8,1.86,2.12,4.06C116.13,57,117,57.44,119,60.75c.45.72,2.28,3.46,2.73,4.29,1-2,1.32-3.74,2.51-7A13,13,0,0,0,124.78,52.59Z"/>
                <path class="cls-1" d="M127.65,67.89a35.08,35.08,0,0,0,2-8.65,14.44,14.44,0,0,0-.54-6.16c-.18.44-.53,1.56-.58,1.72a31.17,31.17,0,0,1-1.4,4.08,34.06,34.06,0,0,1-1.87,3.44,32.32,32.32,0,0,0-1.63,3.7c-1.46,3.6-1.57,7-2.13,7.33a6.5,6.5,0,0,1-.58-2.1c-.44-4-1-7.6-6-12.29a13.2,13.2,0,0,0,0,5.35,28.43,28.43,0,0,0,2.42,7.39c.7,1.53,1.64,3.8,1.89,4.55.67,2,.9,3,1.33,4.13C123,76.44,125.92,72.37,127.65,67.89Z"/>
                <path class="cls-1" d="M123.75,86a27,27,0,0,0,3.39-6,22.94,22.94,0,0,0,1.73-5.21,7.1,7.1,0,0,0,.23-3.2c-1.32,2.39-2.22,5.06-3.95,7-1.36,1.57-2.68,2.9-3.77,4.23-1.67,2-3,4-4.59,6.09a13.36,13.36,0,0,1,0-3.88,20.08,20.08,0,0,0-.29-6.66,41.63,41.63,0,0,0-1.94-7.35c-1.24,2.44-1.24,5.26-1.55,7.85-.6,5,1,11,1.28,13.52a23.42,23.42,0,0,1-.07,2.91,69.35,69.35,0,0,0,6.47-5.75A33.28,33.28,0,0,0,123.75,86Z"/>
                <path class="cls-1" d="M114.84,104.45a31.65,31.65,0,0,0,5.3-4.7,24.28,24.28,0,0,0,3.73-6.49,10.93,10.93,0,0,0,1-3.11c-4.28,5.17-8.12,5.94-12.21,10.24-1.5,1.57-3,3-3.85,3.8a3.37,3.37,0,0,1-1.39.74,5.7,5.7,0,0,1,.48-1.87c2.73-5.21,3.24-10.66,2.83-16.51a20.73,20.73,0,0,0-2.43,4.06,35.84,35.84,0,0,0-1.69,3.63c-2.34,5.81-2.95,12.52-4.39,15.89C106.63,108.63,110.14,107.83,114.84,104.45Z"/>
                <path class="cls-1" d="M96.58,118.16a27.87,27.87,0,0,0,4.82-.13c6.38-1,12.3-5.64,15.28-10.71a36.42,36.42,0,0,1-7,3.57c-2.12.73-4.12.94-7.66,2-2.13.6-4.24,1.45-5,1.73a6.87,6.87,0,0,1-3.36.66s0-.36.88-1.32c1.76-1.92,2.41-2.38,3.85-3.85a18.12,18.12,0,0,0,2.12-3.25c1.57-3.11,1.74-5.6,3.17-9-5.21,3.06-7.76,7.28-10.51,12.6a19.69,19.69,0,0,1-3,4.55c-.7.7-1.69,1.75-1.69,1.75s.72.17,3,.51A47.68,47.68,0,0,0,96.58,118.16Z"/>
                <path class="cls-1" d="M71.32,118.56a46.2,46.2,0,0,0-7.7,2,22.89,22.89,0,0,0-2.4,1.1,33.36,33.36,0,0,0-4.32,2.53,36.55,36.55,0,0,0-7.47,6.28c0,.05-.44.46-.18.67.47.36,1.62.88,2,.54,2.17-1.93,2.06-2.55,4.7-4.94a28.22,28.22,0,0,1,2.92-2.3,33.3,33.3,0,0,1,4-2.37,10.81,10.81,0,0,1,4.14-.77h0c.48,0,3.22,0,3.86,0,5.39.37,5.13.85,8.24,1.7a62.49,62.49,0,0,0,8,1.55,32.32,32.32,0,0,0,7.9.16,24.09,24.09,0,0,0,10.32-3.22c-2.65,0-5.36.56-8,.35a21.43,21.43,0,0,1-4.12-.62c-2.42-.75-3.81-1-6.37-1.75a41.7,41.7,0,0,0-6.71-1.07A33,33,0,0,0,71.32,118.56Z"/>
              </g>
            </g>
            <g>
              <path class="cls-1" d="M61.48,0,56.63,18H51.49L48.27,6.27,45.13,18H40L35.16,0H40l2.76,12.38L46.08,0H50.7l3.15,12.38L56.75,0Z"/>
              <path class="cls-1" d="M77.45,3.48H69.18V6.82h7.67V10.3H69.18V18H64.57V0H77.45Z"/>
              <path class="cls-1" d="M95.5,5.68A6.87,6.87,0,0,1,95.08,8,5.33,5.33,0,0,1,93.87,10a7.37,7.37,0,0,1-2.4,1.6,8.54,8.54,0,0,1-3.29.55H85.29V18H80.66V0h7.63a11.87,11.87,0,0,1,2.89.3,6.79,6.79,0,0,1,2.09.88A4.93,4.93,0,0,1,94.93,3,5.78,5.78,0,0,1,95.5,5.68Zm-4.8.1a2.09,2.09,0,0,0-.41-1.31,2.2,2.2,0,0,0-1-.76,4.1,4.1,0,0,0-1.41-.32c-.46,0-1.07,0-1.84,0h-.8V8.73h1.33a11.5,11.5,0,0,0,1.95-.14A2.83,2.83,0,0,0,89.86,8a2.28,2.28,0,0,0,.65-.92A3.9,3.9,0,0,0,90.7,5.78Z"/>
            </g>
          </g>
          <g>
            <path class="cls-1" d="M30.94,143.49,27.68,154H24.11L22,146.91,19.86,154H16.25L13,143.49h3.53l1.8,7.23,2.24-7.23h3l2.13,7.23,1.77-7.23Z"/>
            <path class="cls-1" d="M38.8,141.9h-.26l-.58-.14a3.13,3.13,0,0,0-.77-.09,1.89,1.89,0,0,0-1.34.36,2,2,0,0,0-.35,1.37v.09h2.59v2.28H35.62V154H32.24v-8.21H30.8v-2.28h1.44v-.29a3.75,3.75,0,0,1,1-2.89,4.32,4.32,0,0,1,3.09-1c.5,0,1,0,1.36.06a9.7,9.7,0,0,1,1.08.13Z"/>
            <path class="cls-1" d="M50.08,148.59a6.79,6.79,0,0,1-.4,2.36,5.3,5.3,0,0,1-1,1.76,4.61,4.61,0,0,1-1.52,1.11,4.67,4.67,0,0,1-1.83.37,5.58,5.58,0,0,1-1.52-.19,8,8,0,0,1-1.28-.54v4.37H39.12V143.49h3.37v1.09a8.07,8.07,0,0,1,1.59-1,4.21,4.21,0,0,1,1.86-.38A3.62,3.62,0,0,1,49,144.63,6.47,6.47,0,0,1,50.08,148.59Zm-3.47.07a3.7,3.7,0,0,0-.53-2.22,1.92,1.92,0,0,0-1.65-.69,3.86,3.86,0,0,0-1,.14,4.52,4.52,0,0,0-1,.42v5.27a2.91,2.91,0,0,0,.72.17c.26,0,.51,0,.76,0a2.42,2.42,0,0,0,2-.78A3.56,3.56,0,0,0,46.61,148.66Z"/>
            <path class="cls-1" d="M55.17,154h-3.5v-3.67h3.5Z"/>
            <path class="cls-1" d="M68.24,148.74a5.45,5.45,0,0,1-1.51,4.08,5.8,5.8,0,0,1-4.24,1.49,5.8,5.8,0,0,1-4.24-1.49,6.28,6.28,0,0,1,0-8.18,5.78,5.78,0,0,1,4.23-1.48,5.79,5.79,0,0,1,4.25,1.49A5.52,5.52,0,0,1,68.24,148.74Zm-4.14,2.55a2.69,2.69,0,0,0,.49-1,5.82,5.82,0,0,0,.16-1.56,6.15,6.15,0,0,0-.16-1.55,2.74,2.74,0,0,0-.47-1,1.66,1.66,0,0,0-.72-.55,2.67,2.67,0,0,0-.91-.16,2.54,2.54,0,0,0-.86.14,1.71,1.71,0,0,0-.73.52,2.75,2.75,0,0,0-.49,1,7.11,7.11,0,0,0,0,3.09,2.43,2.43,0,0,0,.47,1,1.77,1.77,0,0,0,.71.54,2.56,2.56,0,0,0,1,.16,2.49,2.49,0,0,0,.87-.15A1.59,1.59,0,0,0,64.1,151.29Z"/>
            <path class="cls-1" d="M77.31,146.69H77a2.9,2.9,0,0,0-.69-.11c-.32,0-.59,0-.8,0a7.11,7.11,0,0,0-2.45.41v7H69.7V143.49h3.37V145A6.92,6.92,0,0,1,75,143.76a4.24,4.24,0,0,1,1.51-.31h.4a2.41,2.41,0,0,1,.4,0Z"/>
            <path class="cls-1" d="M88.46,152.78a6.46,6.46,0,0,1-.42,2.48,3.63,3.63,0,0,1-1.18,1.58,4.7,4.7,0,0,1-1.82.84,10.5,10.5,0,0,1-2.42.26,19,19,0,0,1-2.15-.13,18.63,18.63,0,0,1-1.84-.32v-2.63H79a11.47,11.47,0,0,0,1.5.45,7.5,7.5,0,0,0,1.59.2,5.31,5.31,0,0,0,1.52-.18,2,2,0,0,0,.89-.49,1.81,1.81,0,0,0,.42-.76,4.1,4.1,0,0,0,.13-1.12v-.2a4.91,4.91,0,0,1-1.35.78,4.28,4.28,0,0,1-1.64.29,4.36,4.36,0,0,1-3.4-1.32,5.93,5.93,0,0,1-1.19-4,6.32,6.32,0,0,1,.36-2.25,5,5,0,0,1,1-1.64,4.07,4.07,0,0,1,1.52-1,4.9,4.9,0,0,1,1.84-.36,5.39,5.39,0,0,1,1.55.2,5.12,5.12,0,0,1,1.26.55l.12-.46h3.27Zm-3.37-2.11v-4.75a2.88,2.88,0,0,0-.71-.2,5.5,5.5,0,0,0-.76-.07,2.48,2.48,0,0,0-2,.77,3.11,3.11,0,0,0-.66,2.12,3.08,3.08,0,0,0,.56,2.12,2.22,2.22,0,0,0,1.67.59,3,3,0,0,0,1-.16A3.31,3.31,0,0,0,85.09,150.67Z"/>
            <path class="cls-1" d="M100.53,139.44,93.11,157H90.25l7.38-17.57Z"/>
            <path class="cls-1" d="M106.4,142h-3.57v-2.55h3.57Zm-.1,12h-3.37V143.49h3.37Z"/>
            <path class="cls-1" d="M115.23,153.89a10.18,10.18,0,0,1-1.15.22,12.37,12.37,0,0,1-1.49.08,4.5,4.5,0,0,1-2.92-.8,3.35,3.35,0,0,1-1-2.72v-4.9h-1.38v-2.28h1.38v-3h3.38v3h3.14v2.28h-3.14v4.69a2.17,2.17,0,0,0,.15.74,1,1,0,0,0,.47.52,2,2,0,0,0,1,.19,3,3,0,0,0,.68-.11,3.48,3.48,0,0,0,.6-.21h.28Z"/>
          </g>
        </g>
        <g>
          <path class="cls-1" d="M177.64,31.54,171,56.4h-7.11l-4.45-16.19L155.05,56.4H148l-6.69-24.86H148l3.81,17.11,4.59-17.11h6.39l4.35,17.11,4-17.11Z"/>
          <path class="cls-1" d="M199.72,47a9.76,9.76,0,0,1-2.7,7.29c-1.8,1.78-4.32,2.66-7.57,2.66s-5.77-.88-7.57-2.66a9.76,9.76,0,0,1-2.7-7.29,9.76,9.76,0,0,1,2.72-7.31c1.81-1.77,4.32-2.65,7.55-2.65s5.8.89,7.59,2.67A9.86,9.86,0,0,1,199.72,47Zm-7.4,4.56a4.87,4.87,0,0,0,.88-1.73,10.66,10.66,0,0,0,.29-2.79,10.85,10.85,0,0,0-.3-2.77,4.81,4.81,0,0,0-.84-1.79,2.94,2.94,0,0,0-1.28-1,4.52,4.52,0,0,0-1.62-.28,4.84,4.84,0,0,0-1.54.23,3.16,3.16,0,0,0-1.3.94,4.77,4.77,0,0,0-.87,1.78,10.45,10.45,0,0,0-.33,2.86,11.49,11.49,0,0,0,.28,2.66,4.61,4.61,0,0,0,.84,1.81,3.12,3.12,0,0,0,1.28,1,4.78,4.78,0,0,0,3.25,0A2.82,2.82,0,0,0,192.32,51.59Z"/>
          <path class="cls-1" d="M217.61,43.38h-.53a5.17,5.17,0,0,0-1.23-.2c-.57,0-1-.07-1.42-.07a13.83,13.83,0,0,0-2.27.17,12.4,12.4,0,0,0-2.11.57V56.4h-6V37.65h6v2.76a12.27,12.27,0,0,1,3.45-2.26,7.41,7.41,0,0,1,2.69-.56h.72l.7,0Z"/>
          <path class="cls-1" d="M227,56.4h-6v-26h6Z"/>
          <path class="cls-1" d="M250.93,56.4h-6V54.45a13.62,13.62,0,0,1-2.9,1.87,7.62,7.62,0,0,1-3.12.6,6.56,6.56,0,0,1-5.46-2.64,11.28,11.28,0,0,1-2-7.11,12,12,0,0,1,.69-4.23A9.72,9.72,0,0,1,234,39.77a7.85,7.85,0,0,1,2.75-1.94,8.21,8.21,0,0,1,3.24-.69,8.77,8.77,0,0,1,2.75.36,17.41,17.41,0,0,1,2.21.9v-8h6Zm-6-5.16V42a5.84,5.84,0,0,0-1.33-.39,7.55,7.55,0,0,0-1.28-.11A4.26,4.26,0,0,0,238.74,43a6.37,6.37,0,0,0-1.18,4.1,6.6,6.6,0,0,0,.95,4,3.59,3.59,0,0,0,3.05,1.25,5.32,5.32,0,0,0,1.73-.31A6.23,6.23,0,0,0,244.9,51.24Z"/>
          <path class="cls-1" d="M287.29,36.35H275.86V41h10.59v4.8H275.86V56.4h-6.38V31.54h17.81Z"/>
          <path class="cls-1" d="M310.54,47a9.79,9.79,0,0,1-2.69,7.29c-1.8,1.78-4.32,2.66-7.57,2.66s-5.78-.88-7.57-2.66A9.76,9.76,0,0,1,290,47a9.76,9.76,0,0,1,2.71-7.31q2.71-2.65,7.56-2.65t7.58,2.67A9.82,9.82,0,0,1,310.54,47Zm-7.39,4.56a4.7,4.7,0,0,0,.87-1.73,10.18,10.18,0,0,0,.3-2.79,10.85,10.85,0,0,0-.3-2.77,5,5,0,0,0-.84-1.79,3,3,0,0,0-1.28-1,4.56,4.56,0,0,0-1.62-.28,4.91,4.91,0,0,0-1.55.23,3.13,3.13,0,0,0-1.29.94,4.78,4.78,0,0,0-.88,1.78,12.86,12.86,0,0,0,0,5.52,4.75,4.75,0,0,0,.83,1.81,3.18,3.18,0,0,0,1.28,1,4.52,4.52,0,0,0,1.7.3,4.57,4.57,0,0,0,1.56-.27A2.93,2.93,0,0,0,303.15,51.59Z"/>
          <path class="cls-1" d="M334,47a9.79,9.79,0,0,1-2.69,7.29C329.52,56.1,327,57,323.75,57s-5.78-.88-7.57-2.66a9.76,9.76,0,0,1-2.7-7.29,9.76,9.76,0,0,1,2.71-7.31q2.71-2.65,7.56-2.65t7.58,2.67A9.82,9.82,0,0,1,334,47Zm-7.39,4.56a4.7,4.7,0,0,0,.87-1.73,10.18,10.18,0,0,0,.3-2.79,11.32,11.32,0,0,0-.3-2.77,5,5,0,0,0-.84-1.79,3,3,0,0,0-1.29-1,4.51,4.51,0,0,0-1.61-.28,4.91,4.91,0,0,0-1.55.23,3.13,3.13,0,0,0-1.29.94,4.78,4.78,0,0,0-.88,1.78,10.49,10.49,0,0,0-.32,2.86,11,11,0,0,0,.28,2.66,4.75,4.75,0,0,0,.83,1.81,3.18,3.18,0,0,0,1.28,1,4.52,4.52,0,0,0,1.7.3,4.57,4.57,0,0,0,1.56-.27A2.93,2.93,0,0,0,326.62,51.59Z"/>
          <path class="cls-1" d="M356.55,56.4h-6V54.45a13.62,13.62,0,0,1-2.9,1.87,7.62,7.62,0,0,1-3.12.6A6.58,6.58,0,0,1,339,54.28a11.34,11.34,0,0,1-2-7.11,12,12,0,0,1,.69-4.23,9.91,9.91,0,0,1,1.9-3.17,7.76,7.76,0,0,1,2.75-1.94,8.16,8.16,0,0,1,3.23-.69,8.88,8.88,0,0,1,2.76.36,18,18,0,0,1,2.21.9v-8h6Zm-6-5.16V42a6,6,0,0,0-1.33-.39,7.63,7.63,0,0,0-1.28-.11A4.26,4.26,0,0,0,344.36,43a6.37,6.37,0,0,0-1.18,4.1,6.6,6.6,0,0,0,.95,4,3.57,3.57,0,0,0,3,1.25,5.28,5.28,0,0,0,1.73-.31A6.3,6.3,0,0,0,350.52,51.24Z"/>
          <path class="cls-1" d="M163.85,71.68a9.38,9.38,0,0,1-.58,3.26,7.31,7.31,0,0,1-1.67,2.68,10.19,10.19,0,0,1-3.32,2.22,12,12,0,0,1-4.54.75h-4v8.1h-6.41V63.83h10.55a16.71,16.71,0,0,1,4,.41,9.15,9.15,0,0,1,2.88,1.23,6.54,6.54,0,0,1,2.3,2.52A7.92,7.92,0,0,1,163.85,71.68Zm-6.63.14a3,3,0,0,0-.56-1.81A3.14,3.14,0,0,0,155.34,69a6.21,6.21,0,0,0-2-.44c-.63,0-1.48,0-2.53,0h-1.1V75.9h1.83a15.36,15.36,0,0,0,2.7-.2,3.83,3.83,0,0,0,1.78-.8,3,3,0,0,0,.89-1.27A5.35,5.35,0,0,0,157.22,71.82Z"/>
          <path class="cls-1" d="M181,75.67h-.54a5,5,0,0,0-1.23-.2c-.57,0-1-.07-1.42-.07a12.69,12.69,0,0,0-2.26.17,13.41,13.41,0,0,0-2.12.56V88.69h-6V69.94h6v2.75a12.89,12.89,0,0,1,3.45-2.26,7.72,7.72,0,0,1,2.7-.56l.72,0,.7,0Z"/>
          <path class="cls-1" d="M202.92,79.32a9.79,9.79,0,0,1-2.7,7.29q-2.7,2.65-7.57,2.66t-7.57-2.66a9.79,9.79,0,0,1-2.7-7.29A9.76,9.76,0,0,1,185.1,72q2.7-2.66,7.55-2.65T200.24,72A9.86,9.86,0,0,1,202.92,79.32Zm-7.4,4.56a4.87,4.87,0,0,0,.88-1.73,10.66,10.66,0,0,0,.29-2.79,10.93,10.93,0,0,0-.3-2.78,4.76,4.76,0,0,0-.84-1.78,2.87,2.87,0,0,0-1.28-1,4.52,4.52,0,0,0-1.62-.28,4.58,4.58,0,0,0-1.54.23,3.16,3.16,0,0,0-1.3.93,4.68,4.68,0,0,0-.87,1.79,10.45,10.45,0,0,0-.33,2.86,11,11,0,0,0,.28,2.66,4.68,4.68,0,0,0,.84,1.81,3.14,3.14,0,0,0,1.28,1,4.43,4.43,0,0,0,1.69.3,4.57,4.57,0,0,0,1.56-.27A3,3,0,0,0,195.52,83.88Z"/>
          <path class="cls-1" d="M224.8,86.53a11.57,11.57,0,0,1-.75,4.44,6.52,6.52,0,0,1-2.1,2.82,8.72,8.72,0,0,1-3.27,1.5,18.8,18.8,0,0,1-4.31.46,30.5,30.5,0,0,1-3.85-.24,29.11,29.11,0,0,1-3.28-.56V90.26H208a18.88,18.88,0,0,0,2.69.79,12.88,12.88,0,0,0,2.83.36,10,10,0,0,0,2.71-.31,3.66,3.66,0,0,0,1.59-.88,3.08,3.08,0,0,0,.75-1.37,7.28,7.28,0,0,0,.23-2V86.5a8.73,8.73,0,0,1-2.4,1.4,8.82,8.82,0,0,1-9-1.85c-1.42-1.58-2.13-4-2.13-7.21a11,11,0,0,1,.65-4,8.9,8.9,0,0,1,1.83-2.94,7.61,7.61,0,0,1,2.71-1.82,8.77,8.77,0,0,1,3.29-.65,9.92,9.92,0,0,1,2.76.36,8.72,8.72,0,0,1,2.26,1l.22-.84h5.84Zm-6-3.75v-8.5a5.68,5.68,0,0,0-1.26-.34,8.74,8.74,0,0,0-1.35-.13,4.47,4.47,0,0,0-3.55,1.36,5.61,5.61,0,0,0-1.18,3.8c0,1.8.33,3.06,1,3.77a3.89,3.89,0,0,0,3,1.07,5.54,5.54,0,0,0,1.76-.28A6.58,6.58,0,0,0,218.77,82.78Z"/>
          <path class="cls-1" d="M243.41,75.67h-.53a5.07,5.07,0,0,0-1.23-.2c-.57,0-1-.07-1.42-.07a12.69,12.69,0,0,0-2.26.17,13.41,13.41,0,0,0-2.12.56V88.69h-6V69.94h6v2.75a12.74,12.74,0,0,1,3.45-2.26,7.72,7.72,0,0,1,2.7-.56l.71,0,.7,0Z"/>
          <path class="cls-1" d="M257.52,86.7c-.32.24-.72.54-1.2.88A7.64,7.64,0,0,1,253.13,89a11.19,11.19,0,0,1-2.09.19,6.33,6.33,0,0,1-4.47-1.66,5.46,5.46,0,0,1-1.8-4.22,5.6,5.6,0,0,1,.92-3.35,6.15,6.15,0,0,1,2.6-2.06,15,15,0,0,1,4.14-1.07c1.65-.21,3.35-.36,5.12-.46v-.1a2.16,2.16,0,0,0-1.27-2.15,9.22,9.22,0,0,0-3.73-.59,10.47,10.47,0,0,0-3.18.53c-1.12.35-1.93.62-2.42.8h-.55V70.34c.64-.17,1.67-.36,3.1-.59a27,27,0,0,1,4.3-.34q5.11,0,7.4,1.57a5.62,5.62,0,0,1,2.28,5V88.69h-6Zm0-2.92V79.89q-1.22.1-2.64.27a13.75,13.75,0,0,0-2.15.41,3,3,0,0,0-1.38.83,2.1,2.1,0,0,0-.47,1.42,3.59,3.59,0,0,0,.1,1,1.42,1.42,0,0,0,.5.7,2.46,2.46,0,0,0,.92.49,6.68,6.68,0,0,0,1.67.15,5,5,0,0,0,1.82-.36A5.87,5.87,0,0,0,257.52,83.78Z"/>
          <path class="cls-1" d="M286.67,75.4V88.69h-6V79.32c0-.91,0-1.69-.07-2.33a4.08,4.08,0,0,0-.36-1.56,1.83,1.83,0,0,0-.91-.87,4.17,4.17,0,0,0-1.71-.28,4.28,4.28,0,0,0-1.72.36,12.49,12.49,0,0,0-1.51.76V88.69h-6V69.94h6V72a16.61,16.61,0,0,1,3-1.9,7.09,7.09,0,0,1,3.14-.69,6.35,6.35,0,0,1,3.26.83A5.59,5.59,0,0,1,286,72.68a19,19,0,0,1,3.5-2.39,7.33,7.33,0,0,1,3.34-.87,5.76,5.76,0,0,1,4.6,1.82A7.79,7.79,0,0,1,299,76.48V88.69h-6V79.32q0-1.38-.06-2.34a3.9,3.9,0,0,0-.35-1.55,1.72,1.72,0,0,0-.91-.87,4.24,4.24,0,0,0-1.73-.28,4.38,4.38,0,0,0-1.47.26A11,11,0,0,0,286.67,75.4Z"/>
          <path class="cls-1" d="M322.19,75.4V88.69h-6V79.32c0-.91,0-1.69-.06-2.33a4.26,4.26,0,0,0-.37-1.56,1.79,1.79,0,0,0-.91-.87,4.17,4.17,0,0,0-1.71-.28,4.32,4.32,0,0,0-1.72.36,11.63,11.63,0,0,0-1.5.76V88.69h-6V69.94h6V72a15.93,15.93,0,0,1,3-1.9,7,7,0,0,1,3.13-.69,6.41,6.41,0,0,1,3.27.83,5.63,5.63,0,0,1,2.21,2.43,19,19,0,0,1,3.5-2.39,7.33,7.33,0,0,1,3.34-.87,5.78,5.78,0,0,1,4.61,1.82,7.79,7.79,0,0,1,1.57,5.24V88.69h-6V79.32q0-1.38-.06-2.34a4.07,4.07,0,0,0-.36-1.55,1.74,1.74,0,0,0-.9-.87,4.26,4.26,0,0,0-1.74-.28,4.38,4.38,0,0,0-1.47.26A11,11,0,0,0,322.19,75.4Z"/>
          <path class="cls-1" d="M357.86,80.42H344.11a4.34,4.34,0,0,0,1.68,3.38A7.52,7.52,0,0,0,350.34,85a10.13,10.13,0,0,0,3.68-.68,11.69,11.69,0,0,0,2.83-1.47h.66v4.82a21.16,21.16,0,0,1-3.84,1.19,20.36,20.36,0,0,1-4,.37q-5.64,0-8.64-2.54a8.92,8.92,0,0,1-3-7.23,9.67,9.67,0,0,1,2.85-7.35,10.84,10.84,0,0,1,7.8-2.71q4.57,0,6.88,2.31c1.54,1.54,2.3,3.76,2.3,6.65Zm-6-3.52a4.25,4.25,0,0,0-.94-2.84,3.61,3.61,0,0,0-2.75-1,4.43,4.43,0,0,0-2.86.9,3.88,3.88,0,0,0-1.25,2.89Z"/>
        </g>
        <g>
          <path class="cls-1" d="M156.52,101.39l-.25,1.09a10.77,10.77,0,0,0-1.35.15,11.12,11.12,0,0,0-1.23.25,1.83,1.83,0,0,0-1,.67,3.18,3.18,0,0,0-.43,1l-4,17.24a1.72,1.72,0,0,0,0,.26c0,.1,0,.19,0,.27a1.23,1.23,0,0,0,.17.65,1.29,1.29,0,0,0,.6.46,5.55,5.55,0,0,0,1.1.28c.56.1,1,.17,1.26.19l-.25,1.1H140.43l.25-1.1,1.33-.1a4.81,4.81,0,0,0,1.23-.2,2,2,0,0,0,1.43-1.63l4-17.26c0-.1,0-.2.05-.3a2.64,2.64,0,0,0,0-.29,1.13,1.13,0,0,0-.15-.59,1.28,1.28,0,0,0-.59-.45,7,7,0,0,0-1.22-.37,10.49,10.49,0,0,0-1.14-.21l.25-1.09Z"/>
          <path class="cls-1" d="M159.47,125.33a3.46,3.46,0,0,1-2.31-.64,2.31,2.31,0,0,1-.73-1.84,5.64,5.64,0,0,1,0-.73c0-.22.08-.48.14-.77l2.59-11.1h-3l.36-1.52h3l1.16-4.87h3l-1.12,4.87h4.62l-.34,1.52h-4.59l-2.15,9.16c-.1.42-.18.83-.25,1.22a5.79,5.79,0,0,0-.1,1,1.73,1.73,0,0,0,.46,1.34,2.39,2.39,0,0,0,1.65.43,10,10,0,0,0,1.22-.11,5,5,0,0,0,1.21-.28l-.28,1.22c-.78.3-1.51.55-2.2.77A7.91,7.91,0,0,1,159.47,125.33Z"/>
          <path class="cls-1" d="M177.81,122.78h-.12c-.24.2-.54.45-.87.76a8.94,8.94,0,0,1-1.19.87,7.78,7.78,0,0,1-1.41.72,4.3,4.3,0,0,1-1.66.31,4.56,4.56,0,0,1-3.78-1.73,7.43,7.43,0,0,1-1.37-4.72,10.83,10.83,0,0,1,.77-4,11.85,11.85,0,0,1,2.11-3.5,10,10,0,0,1,3-2.39,7.85,7.85,0,0,1,3.62-.9,8,8,0,0,1,2.25.31,6.63,6.63,0,0,1,1.69.72l3.05-.79.19.25-2.53,10.74q-.14.51-.27,1.26a5.8,5.8,0,0,0-.14,1.09,1.62,1.62,0,0,0,.4,1.28,2.12,2.12,0,0,0,1.35.33,5.18,5.18,0,0,0,.89-.1,5.36,5.36,0,0,0,.9-.22l-.25,1.07c-1,.4-1.74.69-2.23.86a5.17,5.17,0,0,1-1.78.27,2.5,2.5,0,0,1-2.66-2.48Zm2.39-10.52a4.57,4.57,0,0,0-.12-1.05,2.08,2.08,0,0,0-.48-.93,2.35,2.35,0,0,0-.91-.67,3.88,3.88,0,0,0-1.47-.25,4.11,4.11,0,0,0-2.36.8,8.32,8.32,0,0,0-2.06,2.15,11.1,11.1,0,0,0-1.41,3.06,12.33,12.33,0,0,0-.55,3.65,13.8,13.8,0,0,0,.11,1.8,4.69,4.69,0,0,0,.45,1.43,2.27,2.27,0,0,0,.91,1,3,3,0,0,0,1.51.35,4.27,4.27,0,0,0,2-.53,9.25,9.25,0,0,0,2.3-1.83Z"/>
          <path class="cls-1" d="M195.74,99.49l-4.65,20c-.1.42-.19.84-.28,1.26a5.12,5.12,0,0,0-.13,1,1.63,1.63,0,0,0,.42,1.3,2.17,2.17,0,0,0,1.37.35,8,8,0,0,0,1-.09,4.58,4.58,0,0,0,1-.2l-.25,1.07c-1,.4-1.76.68-2.3.85a6.35,6.35,0,0,1-1.82.25,2.74,2.74,0,0,1-2-.7,2.3,2.3,0,0,1-.69-1.7,4.52,4.52,0,0,1,.08-.8c.05-.28.12-.63.2-1l4.06-17.51c.07-.35.13-.59.15-.72a2.35,2.35,0,0,0,0-.5,1.78,1.78,0,0,0-.19-.92,1.3,1.3,0,0,0-.57-.49,2.93,2.93,0,0,0-.89-.2c-.35,0-.72-.07-1.08-.12l.23-1,6.18-.37Z"/>
          <path class="cls-1" d="M204.62,123.16l-.25,1.07a21.63,21.63,0,0,1-2.45.85,6.39,6.39,0,0,1-1.56.25,2.63,2.63,0,0,1-2-.7,2.32,2.32,0,0,1-.67-1.7,4.48,4.48,0,0,1,.07-.8q.06-.42.21-1l1.76-7.07c.09-.39.17-.81.26-1.25a6.5,6.5,0,0,0,.12-1.13,1.24,1.24,0,0,0-1.56-1.55,5.35,5.35,0,0,0-1,.12c-.4.07-.71.14-.92.2l.25-1.07a15.92,15.92,0,0,1,2.33-.86,6.43,6.43,0,0,1,1.62-.28,2.63,2.63,0,0,1,2,.64,2.46,2.46,0,0,1,.62,1.75,8.18,8.18,0,0,1-.07.82,7.49,7.49,0,0,1-.2,1l-1.77,7.07c-.11.43-.2.86-.28,1.27a5,5,0,0,0-.13,1,1.65,1.65,0,0,0,.42,1.3,2.19,2.19,0,0,0,1.37.35,6.38,6.38,0,0,0,.9-.09A4.06,4.06,0,0,0,204.62,123.16Zm1.18-21.26a2.44,2.44,0,0,1-.62,1.65,2,2,0,0,1-3,0,2.22,2.22,0,0,1-.62-1.54,2.33,2.33,0,0,1,.62-1.6,1.92,1.92,0,0,1,1.46-.68,2.06,2.06,0,0,1,1.55.64A2.13,2.13,0,0,1,205.8,101.9Z"/>
          <path class="cls-1" d="M217.14,122.78H217c-.24.2-.53.45-.87.76a8.33,8.33,0,0,1-1.19.87,7.78,7.78,0,0,1-1.41.72,4.3,4.3,0,0,1-1.66.31,4.58,4.58,0,0,1-3.78-1.73,7.42,7.42,0,0,1-1.36-4.72,10.82,10.82,0,0,1,.76-4,11.85,11.85,0,0,1,2.11-3.5,10.13,10.13,0,0,1,3-2.39,7.94,7.94,0,0,1,5.87-.59,6.33,6.33,0,0,1,1.69.72l3.05-.79.2.25-2.53,10.74c-.09.34-.18.76-.28,1.26a6.8,6.8,0,0,0-.14,1.09,1.62,1.62,0,0,0,.4,1.28,2.16,2.16,0,0,0,1.35.33,7.1,7.1,0,0,0,1.8-.32l-.25,1.07c-1,.4-1.75.69-2.23.86a5.23,5.23,0,0,1-1.79.27,2.6,2.6,0,0,1-1.9-.7A2.67,2.67,0,0,1,217.14,122.78Zm2.39-10.52a5.19,5.19,0,0,0-.11-1.05,2.21,2.21,0,0,0-.49-.93,2.28,2.28,0,0,0-.91-.67,3.86,3.86,0,0,0-1.46-.25,4.14,4.14,0,0,0-2.37.8,8.32,8.32,0,0,0-2.06,2.15,11.1,11.1,0,0,0-1.41,3.06,12.33,12.33,0,0,0-.55,3.65,12.15,12.15,0,0,0,.12,1.8,4.42,4.42,0,0,0,.44,1.43,2.29,2.29,0,0,0,.92,1,3,3,0,0,0,1.51.35,4.27,4.27,0,0,0,2-.53,9.23,9.23,0,0,0,2.29-1.83Z"/>
        </g>
      </g>
    </g>
  </g>
</svg>
